<svg width="30" height="30" viewBox="0 0 30 30" fill="none" xmlns="http://www.w3.org/2000/svg">
<path fill-rule="evenodd" clip-rule="evenodd" d="M7.92893 7.92893C4.02369 11.8342 4.02369 18.1658 7.92893 22.0711C11.8341 25.9763 18.1658 25.9763 22.0711 22.0711C25.9763 18.1659 25.9763 11.8341 22.0711 7.92893C18.1658 4.02369 11.8341 4.02372 7.92893 7.92893ZM8.9261 21.0739C5.57158 17.7194 5.57158 12.2806 8.9261 8.9261C12.2806 5.57161 17.7194 5.57158 21.0739 8.9261C24.4284 12.2806 24.4284 17.7194 21.0739 21.0739C17.7194 24.4284 12.2806 24.4284 8.9261 21.0739ZM12.8696 11.8724C12.5943 11.597 12.1478 11.597 11.8725 11.8724C11.5971 12.1477 11.5971 12.5942 11.8725 12.8696L14.0029 15L11.8725 17.1304C11.5971 17.4057 11.5971 17.8522 11.8725 18.1275C12.1478 18.4029 12.5943 18.4029 12.8696 18.1275L15 15.9971L17.1304 18.1275C17.4058 18.4029 17.8522 18.4029 18.1276 18.1275C18.403 17.8522 18.403 17.4057 18.1276 17.1304L15.9972 15L18.1276 12.8696C18.403 12.5942 18.403 12.1477 18.1276 11.8724C17.8522 11.597 17.4058 11.597 17.1304 11.8724L15 14.0028L12.8696 11.8724Z" fill="black"/>
</svg>
