<svg width="360" height="700" viewBox="0 0 360 700" fill="none" xmlns="http://www.w3.org/2000/svg">
<rect width="360" height="700" fill="#074C4E"/>
<path fill-rule="evenodd" clip-rule="evenodd" d="M179.778 346.889C188.95 346.889 196.444 339.36 196.444 330C196.444 327.547 195.93 325.221 195.005 323.122C196.042 322.854 196.98 322.344 197.757 321.655C198.912 324.195 199.556 327.021 199.556 330C199.556 341.046 190.701 350 179.778 350C168.855 350 160 341.046 160 330C160 318.954 168.855 310 179.778 310C182.916 310 185.884 310.739 188.52 312.055C187.799 312.806 187.253 313.727 186.946 314.75C184.772 313.699 182.341 313.111 179.778 313.111C170.606 313.111 163.111 320.64 163.111 330C163.111 339.36 170.606 346.889 179.778 346.889ZM193.334 318.444C194.315 318.444 195.111 317.649 195.111 316.667C195.111 315.685 194.315 314.889 193.334 314.889C192.352 314.889 191.556 315.685 191.556 316.667C191.556 317.649 192.352 318.444 193.334 318.444ZM179.778 340.667C185.499 340.667 190.223 335.939 190.223 330C190.223 324.061 185.499 319.333 179.778 319.333C174.057 319.333 169.334 324.061 169.334 330C169.334 335.939 174.057 340.667 179.778 340.667ZM179.778 343.778C187.265 343.778 193.334 337.609 193.334 330C193.334 322.391 187.265 316.222 179.778 316.222C172.292 316.222 166.223 322.391 166.223 330C166.223 337.609 172.292 343.778 179.778 343.778ZM178.148 327.143C178.7 326.772 179.345 326.577 180 326.577V323.778C178.761 323.778 177.552 324.148 176.528 324.837C175.504 325.525 174.712 326.499 174.246 327.632C173.78 328.764 173.659 330.007 173.896 331.207L176.705 330.675C176.572 330.003 176.64 329.308 176.9 328.677C177.159 328.047 177.596 327.515 178.148 327.143ZM183.362 330C183.362 330.686 183.16 331.353 182.785 331.917C182.411 332.481 181.883 332.914 181.273 333.168C180.664 333.422 179.996 333.488 179.352 333.359L178.779 336.101C179.994 336.344 181.253 336.219 182.395 335.743C183.536 335.267 184.505 334.464 185.184 333.442C185.863 332.42 186.223 331.222 186.223 330H183.362Z" fill="#F86F2D"/>
<path d="M233 369.5C233 370.881 231.881 372 230.5 372C229.119 372 228 370.881 228 369.5C228 368.119 229.119 367 230.5 367C231.881 367 233 368.119 233 369.5Z" fill="#F86F2D"/>
<path d="M132.796 389.593V381.02C132.796 379.08 134.011 377.828 135.911 377.828C137.562 377.828 138.652 379.111 138.652 381.082V389.593H143.448V379.924C143.448 375.825 141.299 373.447 137.593 373.447C135.568 373.447 133.793 374.229 132.828 375.575L132.516 373.948H128V389.593H132.796Z" fill="white"/>
<path d="M157.228 373.948V382.083C157.228 384.649 156.387 385.713 154.332 385.713C152.37 385.713 151.498 384.587 151.498 382.021V373.948H146.701V383.773C146.701 387.622 148.881 390 152.432 390C154.301 390 156.232 389.124 157.197 387.841L157.509 389.593H162.025V373.948H157.228Z" fill="white"/>
<path d="M170.14 389.593L170.389 387.591C171.23 389.03 173.099 390 175.279 390C179.702 390 182.785 386.777 182.785 381.927C182.785 376.827 180.013 373.416 175.653 373.416C173.41 373.416 171.355 374.355 170.421 375.763V366H165.624V389.593H170.14ZM170.452 381.677C170.452 379.33 172.009 377.765 174.251 377.765C176.525 377.765 177.958 379.361 177.958 381.677C177.958 383.992 176.525 385.588 174.251 385.588C172.009 385.588 170.452 384.023 170.452 381.677Z" fill="white"/>
<path d="M190.062 389.593L190.312 387.591C191.153 389.03 193.021 390 195.201 390C199.624 390 202.708 386.777 202.708 381.927C202.708 376.827 199.936 373.416 195.575 373.416C193.333 373.416 191.277 374.355 190.343 375.763V366H185.546V389.593H190.062ZM190.374 381.677C190.374 379.33 191.931 377.765 194.174 377.765C196.447 377.765 197.88 379.361 197.88 381.677C197.88 383.992 196.447 385.588 194.174 385.588C191.931 385.588 190.374 384.023 190.374 381.677Z" fill="white"/>
<path d="M210.265 389.593V366H205.469V389.593H210.265Z" fill="white"/>
<path d="M221.089 390C225.356 390 228.439 387.778 229 384.305H224.608C224.266 385.432 222.989 386.089 221.182 386.089C219.065 386.089 217.912 385.119 217.632 383.053L228.938 382.991V381.771C228.938 376.67 225.885 373.447 220.996 373.447C216.293 373.447 213.022 376.858 213.022 381.739C213.022 386.558 216.386 390 221.089 390ZM221.027 377.359C222.958 377.359 224.172 378.422 224.172 380.081H217.694C218.068 378.203 219.127 377.359 221.027 377.359Z" fill="white"/>
</svg>
